<?xml version="1.0" encoding="iso-8859-1"?>
<!-- Generator: Adobe Illustrator 19.0.0, SVG Export Plug-In . SVG Version: 6.00 Build 0)  -->
<svg version="1.1" id="Layer_1" xmlns="http://www.w3.org/2000/svg" xmlns:xlink="http://www.w3.org/1999/xlink" x="0px" y="0px"
	 viewBox="0 0 473.935 473.935" style="enable-background:new 0 0 473.935 473.935;" xml:space="preserve">
<circle style="fill:#6EC2CB;" cx="236.967" cy="236.967" r="236.967"/>
<path style="fill:#E9E4B1;" d="M365.951,164.504H106.005c-19.218,0-31.304,12.09-31.304,31.296v138.379
	c0,19.214,12.086,31.308,31.304,31.308h259.946c19.218,0,31.311-12.093,31.311-31.308V195.8
	C397.262,176.597,385.165,164.504,365.951,164.504z M243.452,195.744c0.019-0.007,0.082-0.022,0.082-0.022
	c-0.086,0.067-0.195,0.116-0.284,0.18c-0.206,0.15-0.427,0.273-0.64,0.404c-0.382,0.239-0.767,0.457-1.182,0.647
	c-0.228,0.105-0.46,0.213-0.7,0.303c-0.449,0.183-0.909,0.314-1.377,0.43c-0.228,0.06-0.43,0.123-0.655,0.157
	c-0.707,0.142-1.429,0.225-2.163,0.225c-6.421,0-11.618-5.201-11.618-11.618c0-6.417,5.201-11.622,11.618-11.622
	c6.417,0,11.618,5.205,11.618,11.622C248.155,190.262,246.292,193.615,243.452,195.744z"/>
<g>
	<path style="fill:#FFFFFF;" d="M239.355,197.69c-0.224,0.06-0.43,0.123-0.655,0.157
		C238.921,197.813,239.126,197.746,239.355,197.69z"/>
	<path style="fill:#FFFFFF;" d="M243.254,195.901c-0.206,0.15-0.427,0.273-0.64,0.404
		C242.823,196.174,243.048,196.051,243.254,195.901z"/>
	<path style="fill:#FFFFFF;" d="M241.428,196.956c-0.228,0.105-0.46,0.221-0.7,0.303
		C240.967,197.17,241.203,197.061,241.428,196.956z"/>
</g>
<path style="fill:#58595A;" d="M236.537,198.068c0.733,0,1.456-0.082,2.163-0.225c0.224-0.034,0.43-0.097,0.655-0.157
	c0.468-0.116,0.928-0.254,1.377-0.43c0.236-0.082,0.471-0.198,0.7-0.303c0.415-0.191,0.804-0.404,1.182-0.647
	c0.213-0.135,0.434-0.254,0.64-0.404c0.071-0.049,0.131-0.116,0.202-0.157c-0.453,0.09-6.675,1.373-11.39-1.355
	c-5.081-2.952-7.147-7.94-7.147-7.94C224.915,192.867,230.116,198.068,236.537,198.068z"/>
<g>
	<path style="fill:#FFFFFF;" d="M238.7,197.847c-0.707,0.142-1.429,0.225-2.163,0.225
		C237.271,198.068,237.989,197.985,238.7,197.847z"/>
	<path style="fill:#FFFFFF;" d="M243.538,195.722c0,0-0.067,0.015-0.082,0.022c-0.071,0.041-0.131,0.109-0.202,0.157
		C243.343,195.838,243.448,195.789,243.538,195.722z"/>
	<path style="fill:#FFFFFF;" d="M240.732,197.26c-0.449,0.176-0.909,0.314-1.377,0.43
		C239.822,197.574,240.283,197.439,240.732,197.26z"/>
	<path style="fill:#FFFFFF;" d="M242.614,196.309c-0.382,0.239-0.767,0.457-1.182,0.647
		C241.847,196.762,242.232,196.549,242.614,196.309z"/>
</g>
<g>
	<path style="fill:#90B9C0;" d="M377.303,335.668c0,5.882-4.76,10.634-10.638,10.634h-76.647c-5.867,0-10.634-4.756-10.634-10.634
		v-94.922c0-5.871,4.763-10.634,10.634-10.634h76.647c5.875,0,10.638,4.763,10.638,10.634V335.668z"/>
</g>
<g>
	<path style="fill:#FFFFFF;" d="M336.192,312.469v-6.279c9.212-3.985,15.364-14.425,16.479-27.24
		c1.661-0.726,2.919-3.214,2.919-6.316c0-3.54-1.62-6.376-3.652-6.556c-2.821-12.49-11.79-18.926-24.034-18.926
		c-12.239,0-21.324,6.436-24.191,18.926c-2.032,0.165-3.659,3.02-3.659,6.556c0,3.102,1.25,5.583,2.919,6.316
		c1.115,12.741,7.296,23.147,16.456,27.18v6.346c-28.314,0.412-33.676,3.656-33.676,24.374v15.517h84.467v-15.517
		C370.231,316.05,364.708,312.866,336.192,312.469z"/>
</g>
<g>
	<rect x="102.282" y="232.664" style="fill:#5B4F3F;" width="146.454" height="16.655"/>
	<rect x="102.282" y="256.911" style="fill:#5B4F3F;" width="146.454" height="7.106"/>
	<rect x="184.807" y="278.539" style="fill:#5B4F3F;" width="63.947" height="11.547"/>
	<rect x="102.282" y="278.539" style="fill:#5B4F3F;" width="63.947" height="11.547"/>
</g>
<g>
	<path id="SVGCleanerId_0" style="fill:#58595A;" d="M257.151,164.459c1.482-2.93,2.327-6.23,2.327-9.725c0-4.561-9.242-8-21.493-8
		c-12.258,0-21.5,3.439-21.5,8c0,11.85,9.643,21.497,21.497,21.497c1.138,0,2.26-0.09,3.353-0.262c0,0,1.291,0.456,2.769,1.71
		c1.063,0.913,2.219,2.544,2.219,2.544c-2.63,0.834-5.437,1.291-8.34,1.291c-15.218,0-27.599-12.385-27.599-27.603
		c0-8.602,13.863-12.453,27.603-12.453s27.596,3.847,27.596,12.453c0,3.738-0.745,7.296-2.099,10.552L257.151,164.459z"/>
</g>
<g>
	<path id="SVGCleanerId_0_1_" style="fill:#58595A;" d="M257.151,164.459c1.482-2.93,2.327-6.23,2.327-9.725
		c0-4.561-9.242-8-21.493-8c-12.258,0-21.5,3.439-21.5,8c0,11.85,9.643,21.497,21.497,21.497c1.138,0,2.26-0.09,3.353-0.262
		c0,0,1.291,0.456,2.769,1.71c1.063,0.913,2.219,2.544,2.219,2.544c-2.63,0.834-5.437,1.291-8.34,1.291
		c-15.218,0-27.599-12.385-27.599-27.603c0-8.602,13.863-12.453,27.603-12.453s27.596,3.847,27.596,12.453
		c0,3.738-0.745,7.296-2.099,10.552L257.151,164.459z"/>
</g>
<g>
	<path id="SVGCleanerId_0_2_" style="fill:#58595A;" d="M257.151,164.459c1.482-2.93,2.327-6.23,2.327-9.725
		c0-4.561-9.242-8-21.493-8c-12.258,0-21.5,3.439-21.5,8c0,11.85,9.643,21.497,21.497,21.497c1.138,0,2.26-0.09,3.353-0.262
		c0,0,1.291,0.456,2.769,1.71c1.063,0.913,2.219,2.544,2.219,2.544c-2.63,0.834-5.437,1.291-8.34,1.291
		c-15.218,0-27.599-12.385-27.599-27.603c0-8.602,13.863-12.453,27.603-12.453s27.596,3.847,27.596,12.453
		c0,3.738-0.745,7.296-2.099,10.552L257.151,164.459z"/>
</g>
<path style="fill:#CE2F2E;" d="M260.645,146.068c0,2.967-4.617,5.377-10.309,5.377h-24.266c-5.691,0-10.309-2.406-10.309-5.377l0,0
	c0-2.971,4.614-5.377,10.309-5.377h24.266C256.028,140.691,260.645,143.097,260.645,146.068L260.645,146.068z"/>
<path style="fill:#AD2728;" d="M239.216,102.791c3.106,15.184,7.633,30.694,14.163,45.601h0.715
	c27.525-68.123,27.019-123.266,25.418-144.527c-11.813-2.144-23.929-3.405-36.277-3.727
	C244.986,15.124,248.477,57.515,239.216,102.791z"/>
<g>
	<path style="fill:#CE2F2E;" d="M224.331,148.392h0.718c6.529-14.907,11.057-30.417,14.166-45.601
		c-9.287-45.403-5.751-87.891-4.007-102.772c-12.325,0.09-24.423,1.119-36.235,3.023C197.331,23.678,196.448,79.371,224.331,148.392
		z"/>
	<path style="fill:#CE2F2E;" d="M225.05,148.392h28.329c-6.529-14.907-11.057-30.417-14.163-45.601
		C236.107,117.975,231.579,133.481,225.05,148.392z"/>
</g>
<path style="opacity:0.25;fill:#EFEFEF;enable-background:new    ;" d="M105.702,164.504c-19.218,0-31.304,12.09-31.304,31.296
	v138.379c0,19.214,12.086,31.308,31.304,31.308h215.755L120.478,164.504H105.702z"/>
<path style="fill:#D7D7D7;" d="M243.254,195.901c0.09-0.067,0.198-0.116,0.284-0.18c0,0-0.067,0.015-0.082,0.022
	C243.385,195.789,243.321,195.853,243.254,195.901z"/>
<g>
</g>
<g>
</g>
<g>
</g>
<g>
</g>
<g>
</g>
<g>
</g>
<g>
</g>
<g>
</g>
<g>
</g>
<g>
</g>
<g>
</g>
<g>
</g>
<g>
</g>
<g>
</g>
<g>
</g>
</svg>
